<svg
  width="16"
  height="16"
  viewBox="0 0 16 16"
  fill="none"
  xmlns="http://www.w3.org/2000/svg"
>
  <path d="M5.18359 3.73633V5.06288" stroke="#D0011B" />
  <path d="M5.18359 5.80078V7.12734" stroke="#D0011B" />
  <path d="M5.18359 7.86328V9.18984" stroke="#D0011B" />
  <path d="M5.18359 9.92773V11.2543" stroke="#D0011B" />
  <path
    fill-rule="evenodd"
    clip-rule="evenodd"
    d="M12.5546 5.38294V4.10546C12.5546 3.49493 12.0597 3 11.4492 3H2.60546C1.99493 3 1.5 3.49493 1.5 4.10546V6.59275H2.05273C2.51063 6.59275 2.88183 6.96395 2.88183 7.42185C2.88183 7.87975 2.51063 8.25094 2.05273 8.25094H1.5V10.7382C1.5 11.3488 1.99493 11.8437 2.60546 11.8437H8.37914C8.15979 11.593 7.97124 11.3147 7.81939 11.0146H2.60546C2.45283 11.0146 2.3291 10.8909 2.3291 10.7382V9.05711C3.11334 8.92554 3.71092 8.24348 3.71092 7.42185C3.71092 6.60021 3.11334 5.91815 2.3291 5.78658V4.10546C2.3291 3.95283 2.45283 3.8291 2.60546 3.8291H11.4492C11.6018 3.8291 11.7255 3.95283 11.7255 4.10546V5.22476C12.0115 5.24846 12.2889 5.30225 12.5546 5.38294Z"
    fill="#D0011B"
  />
  <path
    fill-rule="evenodd"
    clip-rule="evenodd"
    d="M11.5 6C9.84315 6 8.5 7.34315 8.5 9C8.5 10.6569 9.84315 12 11.5 12C13.1569 12 14.5 10.6569 14.5 9C14.5 7.34315 13.1569 6 11.5 6ZM12.6638 7.6694C12.8037 7.51516 13.0442 7.5093 13.1914 7.65653C13.3288 7.79394 13.3342 8.015 13.2036 8.15895L11.299 10.2591C11.2928 10.2689 11.2861 10.2784 11.2789 10.2877C11.144 10.4615 10.8887 10.4813 10.7285 10.3304L9.71516 9.37527C9.56485 9.2336 9.56133 8.99573 9.70739 8.84968C9.84651 8.71055 10.0707 8.70618 10.2151 8.83977L10.9696 9.53754L12.6638 7.6694Z"
    fill="#D0011B"
  />
</svg>
